# xmcd
#
# Track frame offsets: 
#        150
#        17741
#        55150
#        93704
#        123635
#        227020
#        272067
#
# Disc length: 3966 seconds
#
# Revision: 0
# Processed by: cddbd v1.5.2PL0 Copyright (c) Steve Scherf et al.
# Submitted via: ExactAudioCopy v0.95b3
#
DISCID=5c0f7c07
DTITLE=Led Zeppelin  - High Heeled Sneakers [CD1)
DYEAR=1900
DGENRE=
TTITLE0=Immigrant Song
TTITLE1=Heartbreaker
TTITLE2=Since Ive Been Loving You
TTITLE3=Out On The Tiles , Black Dog
TTITLE4=Dazed And Confused
TTITLE5=Stairway To Heaven
TTITLE6=Celebration Day
EXTD=
EXTT0=
EXTT1=
EXTT2=
EXTT3=
EXTT4=
EXTT5=
EXTT6=
PLAYORDER=
